<svg width="370" height="371" viewBox="0 0 370 371" fill="none" xmlns="http://www.w3.org/2000/svg">
<path d="M185.611 0.000906137C178.327 -0.0216826 171.007 0.378089 163.817 1.1969C129.44 5.11154 97.0321 18.5439 69.8738 40.1338C62.1537 46.2711 54.6627 53.2902 47.8177 60.8009C41.2515 68.0055 34.4626 76.8666 29.2324 85.0591C28.5429 86.1393 27.8113 87.2829 27.6067 87.6006C26.5915 89.1769 23.6049 94.3208 22.2406 96.8427C21.216 98.7368 19.3076 102.422 18.831 103.428C18.5599 104 17.9888 105.195 17.5619 106.085C15.0813 111.254 12.2512 118.152 10.2869 123.818C9.98948 124.676 9.62621 125.716 9.47953 126.129C9.33285 126.542 8.79511 128.231 8.28453 129.883C3.6176 144.983 1.21348 158.365 0.14829 175.169C-0.0494299 178.289 -0.0494299 191.805 0.14829 194.924C0.886785 206.575 2.14826 215.717 4.40473 225.77C10.5138 252.987 22.7806 278.537 40.2066 300.342C46.9187 308.741 54.4617 316.713 61.9235 323.293C62.3679 323.685 62.9135 324.169 63.1359 324.368C66.2581 327.164 74.1761 333.454 76.9596 335.35C77.0968 335.443 77.9545 336.046 78.8658 336.689C90.6235 344.989 104.264 352.291 117.895 357.582C137.602 365.232 158.106 369.381 179.471 370.042C184.197 370.189 191.541 370.071 196.395 369.77C221.008 368.247 244.594 361.995 266.693 351.138C269.132 349.94 270.331 349.32 273.162 347.795C279.928 344.149 287.559 339.315 294.073 334.549C304.471 326.941 313.869 318.453 322.611 308.775C330.517 300.023 338.179 289.591 344.316 279.225C348.356 272.401 352.553 264.071 355.593 256.846C363.419 238.246 368.133 218.465 369.563 198.217C369.998 192.066 370.129 182.786 369.862 177.018C369.045 159.364 366.045 143.026 360.623 126.706C357.81 118.237 354.911 111.18 350.965 103.197C345.714 92.5727 340.123 83.4906 333.043 74.0841C330.031 70.0825 329.871 69.8781 328.026 67.6482C316.608 53.8489 304.324 42.5702 289.683 32.4422C285.184 29.3302 278.097 24.9716 273.798 22.6721C273.226 22.3663 272.316 21.8724 271.776 21.5746C270.316 20.7692 264.607 17.9373 262.361 16.9042C242.216 7.63761 220.865 2.13996 198.648 0.498444C194.339 0.180077 189.982 0.0144591 185.611 0.000906137ZM186.81 1.85722C203.244 2.02068 219.576 4.36087 235.212 8.82872C253.628 14.0908 270.73 22.0028 286.554 32.5811C298.839 40.7936 309.151 49.6099 319.84 61.0383C320.686 61.9436 323.582 65.2389 324.807 66.6904C325.343 67.3258 325.81 67.8716 325.845 67.9034C326.005 68.0485 329.745 72.7614 330.934 74.3152C333.589 77.7864 338.06 84.2296 340.058 87.4633C340.404 88.0231 340.888 88.8029 341.134 89.1961C341.923 90.4596 344.149 94.2536 345.044 95.8607C358.248 119.56 366.033 145.894 367.773 172.743C368.298 180.839 368.276 190.341 367.713 198.217C366.24 218.855 361.35 238.886 353.162 257.828C352.736 258.813 352.243 259.931 352.066 260.312C351.889 260.693 351.405 261.737 350.991 262.632C346.688 271.936 340.71 282.193 334.478 290.966C308.034 328.195 268.812 354.241 224.526 363.982C213.651 366.374 202.986 367.721 191.485 368.155C188.036 368.285 181.497 368.281 178.027 368.146C161.428 367.501 145.294 364.707 129.679 359.773C122.473 357.496 114.334 354.347 108.322 351.508C107.663 351.197 107.1 350.942 107.072 350.942C106.995 350.942 99.7249 347.302 99.1531 346.978C98.882 346.824 98.2443 346.476 97.736 346.205C90.9984 342.616 82.8696 337.432 76.0171 332.356C72.4879 329.742 67.2001 325.507 64.9844 323.521C64.8255 323.378 63.9692 322.615 63.0814 321.824C57.2896 316.664 51.3681 310.668 46.5464 305.079C43.2455 301.252 40.7532 298.156 37.9928 294.45C17.3147 266.692 5.00863 233.934 2.31905 199.488C1.90026 194.124 1.84932 192.535 1.85269 184.931C1.8567 175.841 2.02532 172.556 2.89926 164.541C3.86085 155.722 5.91593 144.861 8.10052 137.052C8.26142 136.477 8.52417 135.538 8.68438 134.966C13.0743 119.297 20.2411 103.03 28.9674 88.9292C30.6022 86.2876 33.1139 82.468 34.6879 80.23C36.552 77.5795 39.9676 72.9838 41.1875 71.4848C41.4202 71.1989 42.2022 70.2371 42.9254 69.3476C48.2861 62.7536 54.9087 55.7289 61.1138 50.0547C61.7391 49.4828 62.3849 48.8917 62.5489 48.7411C63.325 48.0284 67.7302 44.2475 68.9122 43.2796C74.8016 38.457 81.3363 33.7597 87.743 29.7435C111.011 15.1574 137.205 6.01421 164.395 2.98819C171.85 2.15841 179.341 1.78292 186.81 1.85722Z" fill="#00FF94"/>
<path d="M185.354 9.97254C181.566 9.96032 177.82 10.0069 176.005 10.1182C170.259 10.4708 166.264 10.8457 161.506 11.4789C138.563 14.5324 116.442 22.1619 96.292 33.9712C94.9894 34.7346 93.4297 35.6705 92.8261 36.051C92.2225 36.4315 91.4691 36.9047 91.1519 37.1025C89.8336 37.9247 85.2599 40.9957 83.7573 42.0676C75.9929 47.6066 69.265 53.201 63.0204 59.3107C56.1959 65.988 52.0972 70.5678 46.0774 78.243C41.7001 83.8241 36.6446 91.4063 32.6711 98.35C31.7171 100.017 31.5256 100.363 30.2124 102.792C29.2352 104.6 26.9825 109.102 26.1367 110.937C25.7853 111.699 25.3063 112.739 25.0723 113.247C24.8383 113.756 24.2039 115.211 23.6625 116.481C17.1228 131.824 12.8082 148.053 10.8702 164.599C7.25009 195.506 11.8416 226.855 24.1191 255.056C31.5978 272.234 42.0413 288.502 54.4151 302.248C56.2501 304.287 60.7696 309.039 61.8821 310.1C62.4129 310.606 63.3938 311.542 64.0619 312.179C67.0323 315.014 70.3549 317.966 73.1289 320.234C73.8914 320.858 74.5932 321.436 74.6885 321.519C77.0711 323.601 83.5978 328.385 88.2897 331.488C114.477 348.812 144.398 358.679 175.658 360.3C176.961 360.368 178.391 360.44 178.835 360.462C180.555 360.544 192.799 360.425 194.662 360.308C208.835 359.416 221.001 357.348 233.865 353.646C251.757 348.497 269.775 339.902 284.929 329.287C285.84 328.649 286.698 328.05 286.835 327.956C287.672 327.384 292.32 323.886 293.726 322.771C295.252 321.56 298.998 318.461 299.562 317.943C299.69 317.825 300.21 317.37 300.717 316.931C307.801 310.81 315.895 302.304 322.295 294.255C325.999 289.596 331.338 282.072 333.47 278.508C333.641 278.222 334.056 277.546 334.393 277.006C337.474 272.057 341.835 263.975 343.897 259.388C344.183 258.753 344.623 257.791 344.876 257.251C346.183 254.461 348.565 248.581 349.931 244.774C356.072 227.656 359.378 210.696 360.165 192.267C360.317 188.714 360.242 178.246 360.042 175.227C359.447 166.195 358.524 158.942 356.963 151.024C351.565 123.635 339.516 97.7265 321.986 75.817C320.8 74.3345 319.135 72.3128 318.739 71.8745C318.675 71.8029 318.206 71.2592 317.698 70.6663C298.967 48.8176 273.839 31.2476 246.88 21.1499C229.967 14.8146 213.507 11.3375 194.951 10.1794C192.97 10.0558 189.141 9.98478 185.354 9.97254ZM182.915 19.0543C184.16 19.0488 185.481 19.0549 186.922 19.0715C192.45 19.1351 193.917 19.1968 198.533 19.5604C213.738 20.7582 229.172 24.2061 243.646 29.6382C258.223 35.1093 272.025 42.665 284.715 52.1217C288.699 55.0906 294.316 59.7211 297.134 62.3605C301.624 66.5656 305.015 69.9381 307.583 72.7555C308.307 73.5498 309.07 74.3815 309.277 74.6039C310.568 75.9864 314.394 80.5626 316.327 83.0373C324.347 93.3004 331.523 105.115 336.676 116.54C338.741 121.117 340.532 125.576 342.128 130.114C355.309 167.584 354.489 209.144 339.841 245.987C332.435 264.614 321.833 281.568 308.233 296.53C306.225 298.739 299.98 305.033 298.016 306.826C285.334 318.406 271.802 327.585 256.989 334.654C236.522 344.421 215.266 349.733 192.294 350.824C190.102 350.928 180.635 350.953 178.142 350.862C176.444 350.8 171.579 350.478 169.651 350.301C150.218 348.513 132.038 343.62 114.33 335.413C112.563 334.594 107.835 332.246 106.578 331.563C106.163 331.337 105.537 330.997 105.187 330.807C93.5418 324.47 82.5748 316.67 72.612 307.638C69.01 304.373 63.8369 299.17 60.6458 295.603C49.5341 283.182 40.3366 269.228 33.5018 254.42C25.6293 237.364 20.7627 219.34 19.0133 200.758C18.4472 194.746 18.3758 192.98 18.3758 184.989C18.3758 177.015 18.4479 175.223 19.0076 169.278C19.7852 161.019 21.2475 152.521 23.2816 144.439C27.1533 129.057 33.2258 114.359 41.4189 100.54C47.4439 90.3769 54.8049 80.5854 63.131 71.658C64.5789 70.1057 69.5608 65.1636 71.2228 63.631C72.1441 62.7814 73.1578 61.8464 73.4755 61.5531C75.0497 60.1002 79.8573 56.0806 82.2129 54.2479C108.436 33.8456 139.585 21.8594 172.655 19.4457C176.143 19.1912 179.182 19.0706 182.915 19.0543Z" fill="#00FF94"/>
<path d="M235.732 200.759V187.936L254.014 187.907L272.296 187.877L271.545 187.516C271.132 187.317 270.352 186.947 269.812 186.694C268.586 186.119 263.8 183.882 262.71 183.374C262.264 183.165 261.067 182.605 260.05 182.128C259.034 181.651 257.812 181.08 257.335 180.858C256.859 180.637 254.753 179.65 252.657 178.665C248.059 176.505 241.59 173.475 237.465 171.547L235.79 170.764L235.76 157.92L235.731 145.075H281.364H326.998V157.898V170.721L308.773 170.75L290.549 170.779L291.935 171.456C292.698 171.828 293.582 172.25 293.899 172.393C294.657 172.734 308.7 179.318 310.695 180.268C311.545 180.672 312.255 181.004 312.272 181.004C312.29 181.004 313.067 181.367 314.001 181.812C314.934 182.257 315.712 182.621 315.73 182.621C315.747 182.621 316.457 182.95 317.307 183.352C318.157 183.755 320.621 184.908 322.781 185.916C324.941 186.923 326.774 187.796 326.853 187.855C326.967 187.941 326.998 190.66 326.998 200.773V213.582H281.365H235.732V200.759Z" fill="#00FF94"/>
<path d="M42.2257 179.386V145.19H87.8585H133.491V158.014V170.837H103.512H73.5333V179.386V187.935H103.512H133.491V200.758V213.582H87.8585H42.2257V179.386Z" fill="#00FF94"/>
<path d="M139.037 195.271V176.729H154.69H170.344V182.448V188.166H184.669H198.995V166.736V145.306H214.648H230.302V179.559V213.813H184.669H139.037V195.271Z" fill="#00FF94"/>
</svg>
